<svg version="1.1" xmlns="http://www.w3.org/2000/svg" viewBox="0 0 456.1122209698301 394.5929795335537" width="456.1122209698301" height="394.5929795335537">
  <!-- svg-source:excalidraw -->

  <defs>
    <style class="style-fonts">
      @font-face {
        font-family: "Virgil";
        src: url("https://excalidraw.com/Virgil.woff2");
      }
      @font-face {
        font-family: "Cascadia";
        src: url("https://excalidraw.com/Cascadia.woff2");
      }
    </style>
  </defs>
  <rect x="0" y="0" width="456.1122209698301" height="394.5929795335537" fill="#ffffff"></rect><g stroke-linecap="round" transform="translate(144.77312611309435 10) rotate(0 81.59695434570312 17.16632843017578)"><path d="M44.44 1.49 C54.6 0.14, 69.5 0.38, 82.21 0.38 C94.92 0.39, 109.56 0.19, 120.7 1.52 C131.84 2.85, 142.05 6.02, 149.06 8.36 C156.06 10.7, 161.42 13.23, 162.72 15.57 C164.03 17.92, 161.48 19.99, 156.87 22.44 C152.26 24.89, 144.38 28.36, 135.05 30.28 C125.71 32.2, 113.25 33.46, 100.87 33.97 C88.48 34.48, 73.22 33.93, 60.74 33.34 C48.27 32.75, 35.34 32.22, 26.02 30.43 C16.71 28.64, 9.14 25.11, 4.87 22.57 C0.59 20.04, -1.38 17.87, 0.38 15.22 C2.13 12.57, 7.27 8.84, 15.39 6.68 C23.51 4.52, 42.38 3.26, 49.09 2.24 C55.81 1.23, 55.07 0.61, 55.67 0.59 M87.6 0 C100.04 -0.35, 116.09 0.09, 126.84 1.45 C137.59 2.8, 146.32 5.56, 152.12 8.13 C157.92 10.7, 161.26 13.93, 161.64 16.87 C162.03 19.8, 159.79 23.32, 154.45 25.75 C149.11 28.17, 139.78 29.8, 129.59 31.4 C119.4 33.01, 105.52 35.22, 93.31 35.37 C81.1 35.52, 68.29 33.52, 56.34 32.31 C44.38 31.09, 30.69 29.86, 21.59 28.08 C12.48 26.3, 5.14 24.03, 1.71 21.63 C-1.73 19.22, -1.89 16.23, 0.96 13.64 C3.81 11.06, 10.89 8.09, 18.79 6.11 C26.68 4.12, 36.8 2.67, 48.31 1.74 C59.82 0.82, 81.07 0.82, 87.84 0.57 C94.61 0.31, 89.06 0.25, 88.93 0.23" stroke="#000000" stroke-width="1" fill="none"></path></g><g stroke-linecap="round"><g transform="translate(144.6602721091881 30.125091552734375) rotate(0 16.754067084938356 74.95670118788722)"><path d="M-1.19 0.31 C4.55 25.41, 28.56 125.55, 34.7 150.49 M0.38 -0.57 C5.92 24.17, 27.73 123.28, 33.53 148.58" stroke="#000000" stroke-width="1" fill="none"></path></g></g><mask></mask><g stroke-linecap="round"><g transform="translate(308.0245299216881 29.276123046875) rotate(0 -18.691400749576246 75.93289589726368)"><path d="M1.03 0.68 C-5.18 25.89, -30.82 125.87, -37.21 150.9 M0.11 -0.01 C-6.3 25.34, -32 126.61, -38.41 151.88" stroke="#000000" stroke-width="1" fill="none"></path></g></g><mask></mask><g stroke-linecap="round"><g transform="translate(177.9512877341881 180.783203125) rotate(0 46.60896223559985 3.3450186964875)"><path d="M-0.76 0.62 C7.79 1.74, 35.84 7.22, 51.63 7.12 C67.42 7.02, 86.91 1.45, 93.98 0.02 M1.04 -0.1 C9.95 1.19, 38.62 8.95, 54 8.64 C69.38 8.33, 86.59 -0.4, 93.32 -1.96" stroke="#000000" stroke-width="1" fill="none"></path></g></g><mask></mask><g stroke-linecap="round" transform="translate(281.0352809244082 170.2135687139953) rotate(0 81.59695434570312 17.16632843017578)"><path d="M73.58 0.73 C85.48 0, 100.52 -0.1, 112.21 0.64 C123.89 1.37, 135.51 3.03, 143.69 5.15 C151.86 7.26, 158.43 10.57, 161.25 13.32 C164.07 16.06, 163.83 19.12, 160.61 21.6 C157.39 24.09, 150.56 26.24, 141.94 28.21 C133.31 30.19, 120.75 32.48, 108.86 33.46 C96.97 34.44, 83.2 34.42, 70.6 34.08 C57.99 33.74, 43.54 32.86, 33.25 31.41 C22.96 29.96, 14.32 27.9, 8.88 25.37 C3.44 22.84, 0.35 19.09, 0.62 16.23 C0.88 13.38, 4.58 10.43, 10.44 8.24 C16.3 6.06, 24.51 4.58, 35.76 3.14 C47.02 1.69, 70.05 0.05, 77.98 -0.43 C85.9 -0.91, 83.28 0, 83.32 0.26 M64.69 -0.54 C76.2 -1.54, 90.54 -1.79, 102.64 -0.7 C114.73 0.39, 128.16 4.04, 137.29 6.01 C146.41 7.98, 153.26 8.62, 157.38 11.12 C161.5 13.62, 163.79 18.55, 162 21.01 C160.2 23.47, 153.91 24.09, 146.59 25.88 C139.27 27.67, 129.35 30.16, 118.07 31.76 C106.8 33.37, 91.85 35.37, 78.92 35.53 C65.99 35.7, 51.65 34.44, 40.5 32.75 C29.35 31.05, 18.53 27.45, 12 25.36 C5.47 23.26, 2.07 22.87, 1.33 20.16 C0.59 17.46, 2.92 11.9, 7.55 9.13 C12.18 6.37, 19.69 5.21, 29.12 3.57 C38.55 1.93, 58.36 -0.44, 64.11 -0.72 C69.87 -0.99, 63.03 1.57, 63.64 1.92" stroke="#000000" stroke-width="1" fill="none"></path></g><g stroke-linecap="round"><g transform="translate(444.28668473300195 189.4896917608703) rotate(0 -17.230863252663994 75.50915311571674)"><path d="M-0.25 -0.21 C-6.21 25.29, -29.86 126.96, -35.82 152.38 M1.83 -1.36 C-4.22 23.81, -29.93 125.21, -36.29 150.47" stroke="#000000" stroke-width="1" fill="none"></path></g></g><mask></mask><g stroke-linecap="round" transform="translate(235.51460887775374 205.669386862613) rotate(0 81.59695434570312 17.16632843017578)"><path d="M105.83 0.42 C117.6 0.81, 129.17 2.49, 137.94 4.32 C146.71 6.15, 154.55 8.95, 158.45 11.41 C162.34 13.87, 163.35 16.48, 161.31 19.09 C159.28 21.7, 153.81 24.63, 146.24 27.05 C138.66 29.48, 127.23 32.45, 115.86 33.64 C104.48 34.83, 90.44 34.59, 77.98 34.18 C65.51 33.78, 52.18 32.49, 41.06 31.2 C29.94 29.92, 18.18 28.54, 11.25 26.45 C4.32 24.36, 0.18 21.53, -0.52 18.68 C-1.22 15.83, 1.96 11.78, 7.07 9.34 C12.19 6.9, 20.49 5.58, 30.17 4.04 C39.85 2.5, 51.89 0.69, 65.15 0.1 C78.42 -0.49, 101.75 0.39, 109.74 0.5 C117.73 0.61, 113.59 0.39, 113.1 0.78 M103.47 -0.17 C115.36 0.07, 128.02 1.94, 137.01 3.64 C146 5.34, 153.11 7.48, 157.42 10.03 C161.74 12.59, 164.32 15.93, 162.9 18.97 C161.49 22.02, 156.52 26, 148.94 28.28 C141.35 30.57, 129.1 31.6, 117.4 32.68 C105.69 33.75, 91.41 34.89, 78.71 34.75 C66.01 34.61, 51.81 33.17, 41.19 31.84 C30.57 30.51, 21.69 28.69, 14.97 26.75 C8.25 24.81, 2.23 22.64, 0.89 20.2 C-0.45 17.76, 2.17 15.02, 6.92 12.14 C11.67 9.26, 20.18 4.87, 29.38 2.93 C38.57 1, 49.73 0.9, 62.09 0.54 C74.45 0.17, 96.74 0.84, 103.53 0.73 C110.32 0.63, 103.22 -0.4, 102.84 -0.08" stroke="#000000" stroke-width="1" fill="none"></path></g><g stroke-linecap="round"><g transform="translate(235.4017548738475 225.79447841534738) rotate(0 17.016186783462786 75.80152260621077)"><path d="M-0.71 0.7 C5.11 25.59, 28.61 125.22, 34.74 150.06 M1.12 0.02 C6.76 25.06, 27.82 126.44, 33.6 151.58" stroke="#000000" stroke-width="1" fill="none"></path></g></g><mask></mask><g stroke-linecap="round"><g transform="translate(398.9097487298677 224.945509909488) rotate(0 -18.503455877494957 75.6464060023101)"><path d="M0.7 -0.38 C-5.54 25.22, -30.45 127.67, -36.75 152.92 M-0.39 -1.63 C-6.85 23.72, -31.43 125.69, -37.71 151.29" stroke="#000000" stroke-width="1" fill="none"></path></g></g><mask></mask><g stroke-linecap="round"><g transform="translate(268.6927704988475 376.452589987613) rotate(0 47.466298207766386 3.390224605020478)"><path d="M-0.38 -0.02 C8.61 0.99, 37.69 7.01, 53.23 6.79 C68.78 6.57, 86.28 -0.02, 92.88 -1.36 M1.62 -1.08 C10.6 0.05, 37.16 8.03, 52.78 8.14 C68.39 8.25, 88.68 1.02, 95.31 -0.41" stroke="#000000" stroke-width="1" fill="none"></path></g></g><mask></mask><g stroke-linecap="round" transform="translate(10.600303927594837 166.0355052025052) rotate(0 81.59695434570307 17.16632843017578)"><path d="M114.23 2.14 C125.89 2.75, 137.56 3.9, 145.51 5.89 C153.45 7.89, 159.39 11.56, 161.92 14.1 C164.45 16.64, 164.37 18.68, 160.68 21.12 C157 23.57, 148.59 26.66, 139.81 28.78 C131.03 30.91, 120.05 33.07, 108 33.88 C95.96 34.68, 80.13 34.11, 67.54 33.62 C54.95 33.12, 42.31 32.26, 32.48 30.9 C22.64 29.53, 14.09 27.81, 8.54 25.42 C2.99 23.04, -1.11 19.45, -0.83 16.57 C-0.55 13.69, 3.84 10.4, 10.21 8.13 C16.58 5.86, 26.61 4.37, 37.38 2.94 C48.16 1.52, 60.18 -0.31, 74.86 -0.44 C89.55 -0.57, 115.81 1.5, 125.47 2.18 C135.13 2.85, 133.75 3.21, 132.82 3.59 M68.7 0.39 C80.5 -0.35, 95.08 -0.4, 106.99 0.36 C118.91 1.12, 131.58 3.14, 140.2 4.96 C148.81 6.79, 155.14 8.61, 158.69 11.31 C162.24 14, 163.46 18.16, 161.49 21.11 C159.52 24.06, 154.77 27.21, 146.87 28.99 C138.97 30.78, 125.87 30.82, 114.07 31.81 C102.27 32.79, 88.65 34.99, 76.05 34.93 C63.45 34.87, 49.26 32.91, 38.45 31.44 C27.63 29.97, 17.74 28.49, 11.16 26.11 C4.58 23.73, -0.45 19.7, -1.02 17.17 C-1.58 14.63, 2.53 13.23, 7.77 10.89 C13.01 8.54, 20.57 4.97, 30.42 3.11 C40.27 1.25, 60.73 0.07, 66.86 -0.3 C72.99 -0.66, 66.71 0.53, 67.22 0.93" stroke="#000000" stroke-width="1" fill="none"></path></g><g stroke-linecap="round"><g transform="translate(10.487449923688587 186.16059675523957) rotate(0 17.031498306351693 75.55051494654734)"><path d="M0.64 0.98 C6.28 26.03, 28.74 125.66, 34.55 150.66 M-0.49 0.44 C4.88 25.12, 27.4 124.06, 33.3 148.84" stroke="#000000" stroke-width="1" fill="none"></path></g></g><mask></mask><g stroke-linecap="round" transform="translate(77.33084226634628 201.47264620999647) rotate(0 81.59695434570312 17.16632843017578)"><path d="M102.69 1.52 C114.68 2.16, 129.23 3.18, 138.43 5.01 C147.62 6.85, 153.94 10.2, 157.89 12.53 C161.83 14.85, 163.84 16.4, 162.1 18.96 C160.35 21.52, 154.97 25.73, 147.41 27.88 C139.86 30.03, 128.01 30.7, 116.76 31.85 C105.51 33, 92.54 34.73, 79.92 34.78 C67.29 34.83, 52.07 33.44, 41 32.15 C29.94 30.86, 20.45 29.41, 13.53 27.04 C6.62 24.67, 0.6 20.7, -0.48 17.92 C-1.57 15.13, 2.17 12.58, 7.01 10.32 C11.84 8.07, 18.95 6.05, 28.52 4.37 C38.08 2.7, 50.88 0.94, 64.38 0.27 C77.89 -0.39, 100.94 0.09, 109.56 0.37 C118.17 0.64, 116.47 1.61, 116.06 1.93 M56.51 1.51 C67.87 0.83, 85.72 0.88, 98.23 1.18 C110.74 1.48, 121.72 1.97, 131.57 3.33 C141.42 4.7, 151.97 7, 157.34 9.39 C162.72 11.78, 164.73 15.02, 163.83 17.67 C162.94 20.33, 158.68 22.71, 151.98 25.33 C145.28 27.94, 134.49 31.98, 123.62 33.37 C112.75 34.76, 99.36 33.92, 86.76 33.67 C74.17 33.41, 59.73 32.79, 48.06 31.84 C36.38 30.9, 24.32 29.77, 16.71 28 C9.11 26.23, 4.43 24.07, 2.42 21.23 C0.4 18.38, 1.08 13.79, 4.61 10.92 C8.14 8.05, 14.77 5.65, 23.6 4 C32.42 2.36, 51.65 1.5, 57.56 1.05 C63.47 0.6, 58.62 1.17, 59.04 1.32" stroke="#000000" stroke-width="1" fill="none"></path></g><g stroke-linecap="round"><g transform="translate(77.21798826244003 221.59773776273084) rotate(0 16.87967921984847 74.95453463991177)"><path d="M-0.18 0.65 C5.86 25.5, 29.78 123.91, 35.49 148.99 M-1.73 -0.05 C4.25 24.91, 28.37 125.06, 34.74 149.96" stroke="#000000" stroke-width="1" fill="none"></path></g></g><mask></mask><g stroke-linecap="round"><g transform="translate(238.00306970841189 223.04321659062464) rotate(0 -18.57883659377694 75.73554782175464)"><path d="M0.65 0.37 C-5.64 25.56, -31.76 125.51, -37.81 150.95 M-0.46 -0.48 C-6.39 24.84, -29.77 126.67, -35.67 151.95" stroke="#000000" stroke-width="1" fill="none"></path></g></g><mask></mask><g stroke-linecap="round"><g transform="translate(110.50900388744026 372.25584933499647) rotate(0 46.95783689004833 2.9151826945866333)"><path d="M0.37 -1.09 C8.94 0.17, 35.53 8.08, 51.27 8.21 C67.01 8.35, 87.9 1.03, 94.81 -0.26 M-0.9 0.96 C8.06 1.85, 37.53 7.21, 53.44 6.65 C69.36 6.09, 88.09 -1.03, 94.59 -2.39" stroke="#000000" stroke-width="1" fill="none"></path></g></g><mask></mask><g stroke-linecap="round"><g transform="translate(370.922218565614 351.68736261106665) rotate(0 18.061611459380288 -5.286397765060258)"><path d="M0.41 0.19 C6.72 -1.74, 30.86 -9.16, 36.96 -10.76 M-0.84 -0.76 C5.38 -2.63, 29.71 -7.88, 35.87 -9.67" stroke="#000000" stroke-width="1" fill="none"></path></g></g><mask></mask><g stroke-linecap="round"><g transform="translate(45.23405624163854 339.2145381191683) rotate(0 30.687606523003012 3.3695255108235074)"><path d="M0.58 -0.65 C7.52 0.74, 30.78 6.36, 41.01 7.24 C51.24 8.12, 58.49 4.86, 61.95 4.61 M-0.58 1.62 C6.78 2.75, 32.87 4.8, 43.17 5.44 C53.47 6.08, 58.12 5.22, 61.25 5.47" stroke="#000000" stroke-width="1" fill="none"></path></g></g><mask></mask><g stroke-linecap="round"><g transform="translate(283.7098647352459 188.30274301278644) rotate(0 2.0421153313370723 9.064393119217925)"><path d="M0.57 0.71 C1.53 3.31, 4.08 13.99, 4.68 16.52 M-0.59 0.04 C0.27 2.76, 2.31 15.27, 3.49 18.09" stroke="#000000" stroke-width="1" fill="none"></path></g></g><mask></mask><g stroke-linecap="round"><g transform="translate(272.6001030944417 180.4388766710232) rotate(0 2.7093700626609234 13.454106231869247)"><path d="M-0.73 -0.08 C0.45 4.69, 5.17 23.52, 6.15 28.07 M1.09 -1.16 C2.28 3.33, 5.2 21.52, 5.75 26.5" stroke="#000000" stroke-width="1" fill="none"></path></g></g><mask></mask><g stroke-linecap="round"><g transform="translate(181.65014189466865 179.6358279415075) rotate(0 -2.367862813570696 9.882174985734167)"><path d="M0.4 1.13 C-0.4 4.03, -3.34 15.25, -4.25 18.13 M-0.86 0.68 C-1.84 3.61, -4.25 15.98, -5.13 19.08" stroke="#000000" stroke-width="1" fill="none"></path></g></g><mask></mask><g stroke-linecap="round"><g transform="translate(208.82902891560502 350.1300131449849) rotate(0 26.87797380291056 1.6939898980770636)"><path d="M0.43 -1.09 C5.18 -0.5, 19.54 4.26, 28.56 4.47 C37.59 4.69, 50.37 0.67, 54.56 0.19 M-0.81 0.95 C3.79 1.15, 18.53 2.89, 27.62 2.95 C36.72 3.01, 49.45 1.88, 53.77 1.31" stroke="#000000" stroke-width="1" fill="none"></path></g></g><mask></mask><g stroke-linecap="round"><g transform="translate(376.4727496856808 153.18341924958565) rotate(0 -1.7907801427847971 8.526897366447116)"><path d="M-0.68 -0.65 C-1.13 2.1, -3.29 13.45, -3.61 16.62 M1.16 1.63 C0.6 4.49, -4.05 15.22, -4.75 17.7" stroke="#000000" stroke-width="1" fill="none"></path></g></g><mask></mask><g stroke-linecap="round"><g transform="translate(376.0741447143914 152.9781604175355) rotate(0 -46.373139257962634 -8.65396505491998)"><path d="M0.31 -0.51 C-7.16 -2.92, -28.15 -11.87, -43.71 -14.59 C-59.27 -17.3, -84.87 -16.48, -93.05 -16.8 M-0.99 -1.83 C-8.74 -4, -29.93 -10.67, -44.87 -12.95 C-59.81 -15.23, -82.63 -15.14, -90.63 -15.51" stroke="#000000" stroke-width="1" fill="none"></path></g></g><mask></mask><g stroke-linecap="round"><g transform="translate(273.9899695043605 169.33483625768747) rotate(0 51.56461870355122 -7.99144416947567)"><path d="M-0.81 0.37 C12.11 0.34, 59.48 1.73, 76.56 -1.19 C93.63 -4.11, 97.22 -14.35, 101.63 -17.16 M0.97 -0.48 C14.34 -0.26, 61.59 2.7, 78.75 0.14 C95.91 -2.43, 99.83 -12.95, 103.94 -15.87" stroke="#000000" stroke-width="1" fill="none"></path></g></g><mask></mask><g stroke-linecap="round"><g transform="translate(175.14510626313267 181.93885711646328) rotate(0 -2.63999371047737 10.506554406148808)"><path d="M0.33 -0.81 C-0.64 2.44, -4.05 16.9, -5.01 20.57 M-0.95 1.39 C-2.1 5.31, -4.76 18.29, -5.61 21.82" stroke="#000000" stroke-width="1" fill="none"></path></g></g><mask></mask><g stroke-linecap="round"><g transform="translate(68.2676396563146 150.12338547028776) rotate(0 2.399343152989559 8.880843840047845)"><path d="M0.43 -0.08 C1.55 3.15, 5.08 15.76, 5.6 18.93 M-0.8 -1.17 C0.35 1.74, 4.08 14, 5.21 17" stroke="#000000" stroke-width="1" fill="none"></path></g></g><mask></mask><g stroke-linecap="round"><g transform="translate(71.29910648476027 148.8195334048421) rotate(0 48.73336610277238 -9.524467065951796)"><path d="M0.88 -0.15 C5.39 -2.37, 11.22 -10.54, 27.34 -13.31 C43.46 -16.07, 85.96 -16.02, 97.59 -16.75 M-0.12 -1.28 C4.2 -3.37, 10.02 -9.3, 26.28 -12.24 C42.54 -15.17, 85.52 -18.13, 97.44 -18.89" stroke="#000000" stroke-width="1" fill="none"></path></g></g><mask></mask><g stroke-linecap="round"><g transform="translate(69.47050813829446 151.82835044235128) rotate(0 54.54574227756615 6.015950579659801)"><path d="M0.77 0.19 C6.11 2.34, 14.39 10.02, 32.49 11.93 C50.59 13.84, 96.77 11.81, 109.38 11.63 M-0.28 -0.75 C5.39 1.11, 16.54 7.76, 34.76 10.01 C52.98 12.27, 96.8 12.55, 109.03 12.78" stroke="#000000" stroke-width="1" fill="none"></path></g></g><mask></mask></svg>
